inDegrees=yes
name=ik_S52_A03_T03
DataType=double
version=3
OpenSimVersion=4.3-2021-08-27-4bc7ad9
endheader
time	pelvis_tilt	pelvis_list	pelvis_rotation	pelvis_tx	pelvis_ty	pelvis_tz	hip_flexion_r	hip_adduction_r	hip_rotation_r	knee_angle_r	knee_angle_r_beta	ankle_angle_r	subtalar_angle_r	mtp_angle_r	hip_flexion_l	hip_adduction_l	hip_rotation_l	knee_angle_l	knee_angle_l_beta	ankle_angle_l	subtalar_angle_l	mtp_angle_l	lumbar_extension	lumbar_bending	lumbar_rotation	arm_flex_r	arm_add_r	arm_rot_r	elbow_flex_r	pro_sup_r	wrist_flex_r	wrist_dev_r	arm_flex_l	arm_add_l	arm_rot_l	elbow_flex_l	pro_sup_l	wrist_flex_l	wrist_dev_l
25.35999999999955	-2.147039150126343	2.906932049369756	99.23484440000462	0	0.9399999999999999	0	17.06456501300003	-13.36075284222337	-6.717023046911959	13.10795375207313	0.2287769511728206	0	0	0	-5.134815150772915	7.071756861844045	4.607428989786888	2.815928218810518	0.04914721891806286	0	0	0	0	0	0	37.38898766092924	-37.38898766092924	4.77186938888848	81.95795714763727	85.2281308756134	0	0	37.38898766092924	-37.38898766092924	4.77186938888848	81.95795714763727	85.22813087557056	0	0
25.37999999999955	-2.055022853095773	2.586551067392113	99.7094192804911	0	0.9399999999999999	0	17.08288979052285	-12.71169503732244	-7.163848608671341	10.99164402067678	0.1918403783679576	0	0	0	-5.147896902394001	7.015338578459575	5.104307520654771	2.568068952022401	0.04482125863103119	0	0	0	0	0	0	37.3906028062143	-37.3906028062143	4.771966198335907	81.95924936082908	85.22803406617057	0	0	37.3906028062143	-37.3906028062143	4.771966198335907	81.95924936082908	85.22803406612775	0	0
25.39999999999955	-1.965898406717106	2.378723478027819	99.9869553079907	0	0.9399999999999999	0	17.16003570102268	-12.26047998777957	-7.296491598599005	9.224238260659236	0.1609933286369386	0	0	0	-5.179868242773554	6.949272391154626	5.381519458437166	3.010065310532546	0.05253555036885849	0	0	0	0	0	0	37.39231538546743	-37.39231538546743	4.772068779300979	81.96061860868002	85.22793148521042	0	0	37.39231538546743	-37.39231538546743	4.772068779300979	81.96061860868002	85.2279314851676	0	0
25.41999999999955	-1.931452322381412	2.197093535014831	100.2713475734858	0	0.9399999999999999	0	17.35764162399105	-11.72221642170262	-7.237326032807378	6.720425518234748	0.1172935524282426	0	0	0	-5.478803660334024	6.830316235068984	5.138480845564934	3.045740333989579	0.05315819698890991	0	0	0	0	0	0	37.39409992807561	-37.3940999280756	4.772176113948315	81.96205132482028	85.22782415056827	0	0	37.39409992807561	-37.3940999280756	4.772176113948315	81.96205132482028	85.22782415052545	0	0
25.43999999999955	-1.996981926875101	2.046821888612601	100.5490986677756	0	0.9399999999999999	0	17.47104777175446	-11.86194983993474	-7.50754184784327	6.506407084291465	0.1135582260959703	0	0	0	-5.41460843435938	6.876621191110547	5.340546677006481	3.217903830067029	0.05616301684720575	0	0	0	0	0	0	37.39475781793966	-37.39475781793966	4.772215304327998	81.96257442775263	85.22778496019041	0	0	37.39475781793966	-37.39475781793966	4.772215304327998	81.96257442775263	85.22778496014762	0	0
25.45999999999955	-2.041912153908561	1.922189808406167	100.7536004068044	0	0.9399999999999999	0	17.56543637818963	-11.55703965492657	-7.169620799887475	5.736308439967106	0.1001174691873655	0	0	0	-5.632824698432457	6.725881828974862	4.997174111138161	3.676700372550042	0.06417052711030037	0	0	0	0	0	0	37.39616331728702	-37.39616331728701	4.772299907838627	81.96370372744433	85.22770035668375	0	0	37.39616331728702	-37.39616331728701	4.772299907838627	81.96370372744433	85.22770035664101	0	0
25.47999999999955	-2.053555242056758	1.858305531822233	100.9195477340533	0	0.9399999999999999	0	17.62523911344125	-11.58282196237474	-7.288016264198823	5.653758803154994	0.09867670622866861	0	0	0	-5.59069482914675	6.741706612604742	5.165650921690474	3.684119291628997	0.06430001167516716	0	0	0	0	0	0	37.39665536904158	-37.39665536904157	4.772329176435972	81.96409439490181	85.22767108808777	0	0	37.39665536904158	-37.39665536904157	4.772329176435972	81.96409439490181	85.22767108804503	0	0
25.49999999999955	-2.001369470668061	1.718576013659671	101.220919460014	0	0.9399999999999999	0	17.51483968389408	-11.06494465040453	-6.739761601365832	5.039132895561463	0.08794946047310308	0	0	0	-5.481457132997466	6.612482156015656	5.425176070178412	4.630371133567265	0.0808152218700509	0	0	0	0	0	0	37.39838207232412	-37.39838207232411	4.772433060670931	81.96548105320446	85.2275672038577	0	0	37.39838207232412	-37.39838207232411	4.772433060670931	81.96548105320446	85.227567203815	0	0
25.51999999999954	-1.821431784684802	1.448084356948068	101.7419050433404	0	0.9399999999999999	0	17.44060166534661	-10.75481402597709	-6.965110657194307	4.830802218111093	0.08431340421868382	0	0	0	-5.277999063688019	6.37930681451672	5.853568803191523	4.93753971906422	0.08617632504566647	0	0	0	0	0	0	37.39942727277928	-37.39942727277928	4.772495805633113	81.96631857407203	85.22750445889851	0	0	37.39942727277928	-37.39942727277928	4.772495805633113	81.96631857407203	85.22750445885579	0	0
25.53999999999954	-1.790348468812409	1.340964064818913	101.9342591369974	0	0.9399999999999999	0	17.19671748630562	-10.44177595148065	-6.7566127896595	4.660186554159279	0.08133559912724846	0	0	0	-5.211881843169937	6.291118503913347	5.899599392638354	5.349852692047513	0.09337254397291135	0	0	0	0	0	0	37.40079375344784	-37.40079375344784	4.77257797818583	81.96741541973465	85.22742228634968	0	0	37.40079375344784	-37.40079375344784	4.77257797818583	81.96741541973465	85.22742228630699	0	0
25.55999999999954	-1.789567615886708	1.111770414691131	102.3121397160713	0	0.9399999999999999	0	17.06491551794828	-10.2083741602144	-6.595838243425562	4.664531474043161	0.08141143228495758	0	0	0	-5.052414978966373	6.259940413980392	6.183312861713263	5.742738515558799	0.1002296951775927	0	0	0	0	0	0	37.402124042328	-37.402124042328	4.772657931549633	81.96848264123182	85.22734233298965	0	0	37.402124042328	-37.402124042328	4.772657931549633	81.96848264123182	85.22734233294702	0	0
25.57999999999954	-1.821825261114754	0.8788057242930066	102.6679849972969	0	0.9399999999999999	0	16.82090700344409	-9.99385978160001	-6.584609523539813	4.675377134378714	0.08160072476736592	0	0	0	-4.899278128309274	6.244319373478616	6.411848009169962	5.968361208799755	0.1041675540418645	0	0	0	0	0	0	37.40311802280404	-37.40311802280404	4.772717604917757	81.9692791613539	85.22728265962438	0	0	37.40311802280404	-37.40311802280404	4.772717604917757	81.9692791613539	85.22728265958176	0	0
25.59999999999954	-1.867272072066015	0.5203430510534799	103.0235689551207	0	0.9399999999999999	0	16.14163891419188	-9.364293055196526	-6.736611728990438	3.805919676217837	0.06642582941643778	0	0	0	-4.62607759272266	6.287708870050293	6.653426467535056	6.264101985372671	0.1093292043254668	0	0	0	0	0	0	37.40510438037466	-37.40510438037465	4.772836948092293	81.97087215673102	85.22716331645549	0	0	37.40510438037466	-37.40510438037465	4.772836948092293	81.97087215673102	85.22716331641287	0	0
25.61999999999954	-1.885144133947592	0.3253720319660879	103.2799751204504	0	0.9399999999999999	0	16.31699032405993	-9.483046785964646	-6.878498668843572	4.32529684772522	0.07549067111893691	0	0	0	-4.47107712146583	6.324964068606628	6.919308345456305	6.254363053358964	0.1091592278961997	0	0	0	0	0	0	37.40632873287614	-37.40632873287613	4.772910293149591	81.97185115901749	85.22708997140167	0	0	37.40632873287614	-37.40632873287613	4.772910293149591	81.97185115901749	85.22708997135911	0	0
